#N canvas 218 193 1682 832 12;
#X text 10 11 Squeaky Gate Hinge;
#X obj 40 180 noise~;
#X obj 175 246 *~;
#X obj 22 47 bng 15 250 50 0 empty empty empty 17 7 0 10 -262144 -1
-1;
#N canvas 294 112 827 672 resonate-weak 0;
#X obj 45 37 inlet~;
#X obj 45 245 outlet~;
#X obj 285 37 inlet bw;
#X text 26 9 Secondary hinge resonances;
#X obj 146 61 bp~ 2003 100;
#X obj 145 91 bp~ 3407 100;
#X obj 145 121 bp~ 5605 100;
#X obj 145 151 bp~ 7102 100;
#X connect 0 0 4 0;
#X connect 0 0 5 0;
#X connect 0 0 6 0;
#X connect 0 0 7 0;
#X connect 2 0 4 2;
#X connect 2 0 5 2;
#X connect 2 0 6 2;
#X connect 2 0 7 2;
#X connect 4 0 1 0;
#X connect 5 0 1 0;
#X connect 6 0 1 0;
#X connect 7 0 1 0;
#X restore 40 219 pd resonate-weak;
#X obj 22 126 vline~;
#X obj 22 244 *~;
#N canvas 236 112 1329 841 resonate-weak 0;
#X obj 40 41 inlet~;
#X obj 40 249 outlet~;
#X obj 280 41 inlet bw;
#X text 21 13 Secondary hinge resonances;
#X obj 141 65 bp~ 2003 100;
#X obj 140 95 bp~ 3407 100;
#X obj 140 125 bp~ 5605 100;
#X obj 140 155 bp~ 7102 100;
#X connect 0 0 4 0;
#X connect 0 0 5 0;
#X connect 0 0 6 0;
#X connect 0 0 7 0;
#X connect 2 0 4 2;
#X connect 2 0 5 2;
#X connect 2 0 6 2;
#X connect 2 0 7 2;
#X connect 4 0 1 0;
#X connect 5 0 1 0;
#X connect 6 0 1 0;
#X connect 7 0 1 0;
#X restore 380 219 pd resonate-weak;
#X obj 362 126 vline~;
#X obj 362 244 *~;
#X obj 159 365 dac~;
#N canvas 852 217 808 614 resonate-main 0;
#X obj 45 37 inlet~;
#X obj 45 245 outlet~;
#X text 26 9 Major hinge resonances;
#X obj 285 37 inlet bw;
#X obj 145 61 bp~ 2306 800;
#X obj 145 91 bp~ 4505 800;
#X obj 145 121 bp~ 6704 800;
#X obj 145 151 bp~ 8903 800;
#X obj 145 181 bp~ 11002 800;
#X obj 145 211 bp~ 13701 800;
#X connect 0 0 4 0;
#X connect 0 0 5 0;
#X connect 0 0 6 0;
#X connect 0 0 7 0;
#X connect 0 0 8 0;
#X connect 0 0 9 0;
#X connect 3 0 4 2;
#X connect 3 0 5 2;
#X connect 3 0 6 2;
#X connect 3 0 7 2;
#X connect 3 0 8 2;
#X connect 3 0 9 2;
#X connect 4 0 1 0;
#X connect 5 0 1 0;
#X connect 6 0 1 0;
#X connect 7 0 1 0;
#X connect 8 0 1 0;
#X connect 9 0 1 0;
#X restore 193 220 pd resonate-main;
#X obj 175 126 vline~;
#X obj 159 331 +~;
#X obj 22 270 *~ 0.4;
#X obj 175 270 *~ 0.9;
#X msg 22 102 0 \, 1 20 0 \, 0 10 20;
#X msg 175 102 0 \, 1 100 30 \, 0 100 130;
#X msg 362 102 0 \, 1 50 230 \, 0 100 280;
#X obj 489 46 nbx 5 14 -1e+37 1e+37 0 0 empty empty Q 0 -8 0 10 -262144
-1 -1 613 256;
#X obj 149 51 nbx 5 14 -1e+37 1e+37 0 0 empty empty Q 0 -8 0 10 -262144
-1 -1 669 256;
#X obj 302 50 nbx 5 14 -1e+37 1e+37 0 0 empty empty Q 0 -8 0 10 -262144
-1 -1 890 256;
#X obj 362 268 *~ 0.3;
#X connect 1 0 11 0;
#X connect 1 0 4 0;
#X connect 1 0 7 0;
#X connect 2 0 15 0;
#X connect 3 0 17 0;
#X connect 3 0 16 0;
#X connect 3 0 18 0;
#X connect 4 0 6 1;
#X connect 5 0 6 0;
#X connect 6 0 14 0;
#X connect 7 0 9 1;
#X connect 8 0 9 0;
#X connect 9 0 22 0;
#X connect 11 0 2 1;
#X connect 12 0 2 0;
#X connect 13 0 10 0;
#X connect 13 0 10 1;
#X connect 14 0 13 0;
#X connect 15 0 13 0;
#X connect 16 0 5 0;
#X connect 17 0 12 0;
#X connect 18 0 8 0;
#X connect 19 0 7 1;
#X connect 20 0 4 1;
#X connect 21 0 11 1;
#X connect 22 0 13 0;
